<svg width="43" height="43" viewBox="0 0 43 43" fill="none" xmlns="http://www.w3.org/2000/svg">
<g id="ph:arrow-up-thin">
<path id="Vector" d="M23.9107 9.47284C23.8497 9.53378 23.8013 9.60616 23.7682 9.68583C23.7352 9.7655 23.7182 9.85089 23.7182 9.93713C23.7182 10.0234 23.7352 10.1088 23.7682 10.1884C23.8013 10.2681 23.8497 10.3405 23.9107 10.4014L34.6026 21.0934H7.31247C7.13842 21.0934 6.9715 21.1625 6.84843 21.2856C6.72536 21.4087 6.65622 21.5756 6.65622 21.7496C6.65622 21.9237 6.72536 22.0906 6.84843 22.2137C6.9715 22.3367 7.13842 22.4059 7.31247 22.4059H34.6026L23.9107 33.0978C23.8497 33.1588 23.8013 33.2312 23.7683 33.3109C23.7353 33.3905 23.7184 33.4759 23.7184 33.5621C23.7184 33.6484 23.7353 33.7337 23.7683 33.8134C23.8013 33.8931 23.8497 33.9655 23.9107 34.0264C23.9716 34.0874 24.044 34.1358 24.1237 34.1688C24.2034 34.2018 24.2887 34.2188 24.375 34.2188C24.4612 34.2188 24.5466 34.2018 24.6262 34.1688C24.7059 34.1358 24.7783 34.0874 24.8393 34.0264L36.6518 22.2139C36.7128 22.153 36.7612 22.0806 36.7942 22.0009C36.8272 21.9213 36.8442 21.8359 36.8442 21.7496C36.8442 21.6634 36.8272 21.578 36.7942 21.4983C36.7612 21.4187 36.7128 21.3463 36.6518 21.2853L24.8393 9.47284C24.7783 9.41182 24.7059 9.36342 24.6263 9.33039C24.5466 9.29737 24.4612 9.28037 24.375 9.28037C24.2887 9.28037 24.2033 9.29737 24.1237 9.33039C24.044 9.36342 23.9716 9.41182 23.9107 9.47284Z" fill="#FEFAE0"/>
</g>
</svg>
