<svg width="35" height="35" viewBox="0 0 35 35" fill="none" xmlns="http://www.w3.org/2000/svg">
<g id="ri:linkedin-fill">
<path id="Vector" d="M10.2261 7.43747C10.2257 8.19997 9.92243 8.93109 9.38299 9.46998C8.84355 10.0089 8.11213 10.3114 7.34964 10.311C6.58714 10.3107 5.85602 10.0074 5.31713 9.46795C4.77823 8.92851 4.47569 8.1971 4.47607 7.4346C4.47646 6.6721 4.77972 5.94098 5.31916 5.40209C5.8586 4.86319 6.59001 4.56065 7.35251 4.56104C8.11501 4.56142 8.84613 4.86468 9.38502 5.40412C9.92392 5.94356 10.2265 6.67498 10.2261 7.43747ZM10.3123 12.44H4.56232V30.4375H10.3123V12.44ZM19.3973 12.44H13.6761V30.4375H19.3398V20.9931C19.3398 15.7318 26.1967 15.2431 26.1967 20.9931V30.4375H31.8748V19.0381C31.8748 10.1687 21.7261 10.4993 19.3398 14.855L19.3973 12.44Z" fill="#FEFAE0"/>
</g>
</svg>
