<svg width="56" height="56" viewBox="0 0 56 56" fill="none" xmlns="http://www.w3.org/2000/svg">
<g id="octicon:play-24">
<path id="Vector" d="M22.1667 36.3627V19.6374C22.1671 19.4281 22.2237 19.2228 22.3307 19.0429C22.4377 18.8631 22.591 18.7153 22.7748 18.6151C22.9585 18.5149 23.1657 18.466 23.3749 18.4734C23.584 18.4808 23.7873 18.5444 23.9634 18.6574L36.9741 27.0177C37.1388 27.1233 37.2744 27.2686 37.3683 27.4402C37.4621 27.6119 37.5114 27.8044 37.5114 28C37.5114 28.1957 37.4621 28.3882 37.3683 28.5599C37.2744 28.7315 37.1388 28.8768 36.9741 28.9824L23.9634 37.345C23.7873 37.458 23.584 37.5216 23.3749 37.529C23.1657 37.5365 22.9585 37.4875 22.7748 37.3873C22.591 37.2871 22.4377 37.1393 22.3307 36.9595C22.2237 36.7796 22.1671 36.5743 22.1667 36.365V36.3627Z" fill="white"/>
<path id="Vector_2" d="M2.33325 27.9999C2.33325 13.8249 13.8249 2.33325 27.9999 2.33325C42.1749 2.33325 53.6666 13.8249 53.6666 27.9999C53.6666 42.1749 42.1749 53.6666 27.9999 53.6666C13.8249 53.6666 2.33325 42.1749 2.33325 27.9999ZM27.9999 5.83325C22.121 5.83325 16.4828 8.16866 12.3257 12.3257C8.16866 16.4828 5.83325 22.121 5.83325 27.9999C5.83325 33.8789 8.16866 39.5171 12.3257 43.6741C16.4828 47.8312 22.121 50.1666 27.9999 50.1666C33.8789 50.1666 39.5171 47.8312 43.6741 43.6741C47.8312 39.5171 50.1666 33.8789 50.1666 27.9999C50.1666 22.121 47.8312 16.4828 43.6741 12.3257C39.5171 8.16866 33.8789 5.83325 27.9999 5.83325Z" fill="white"/>
</g>
</svg>
