<svg width="35" height="35" viewBox="0 0 35 35" fill="none" xmlns="http://www.w3.org/2000/svg">
<g id="mdi:instagram">
<path id="Vector" d="M11.4625 3.125H23.5375C28.1375 3.125 31.875 6.8625 31.875 11.4625V23.5375C31.875 25.7487 30.9966 27.8694 29.433 29.433C27.8694 30.9966 25.7487 31.875 23.5375 31.875H11.4625C6.8625 31.875 3.125 28.1375 3.125 23.5375V11.4625C3.125 9.25126 4.00341 7.13058 5.567 5.567C7.13058 4.00341 9.25126 3.125 11.4625 3.125ZM11.175 6C9.8025 6 8.48622 6.54522 7.51572 7.51572C6.54522 8.48622 6 9.8025 6 11.175V23.825C6 26.6856 8.31437 29 11.175 29H23.825C25.1975 29 26.5138 28.4548 27.4843 27.4843C28.4548 26.5138 29 25.1975 29 23.825V11.175C29 8.31437 26.6856 6 23.825 6H11.175ZM25.0469 8.15625C25.5234 8.15625 25.9805 8.34556 26.3175 8.68254C26.6544 9.01952 26.8438 9.47656 26.8438 9.95312C26.8438 10.4297 26.6544 10.8867 26.3175 11.2237C25.9805 11.5607 25.5234 11.75 25.0469 11.75C24.5703 11.75 24.1133 11.5607 23.7763 11.2237C23.4393 10.8867 23.25 10.4297 23.25 9.95312C23.25 9.47656 23.4393 9.01952 23.7763 8.68254C24.1133 8.34556 24.5703 8.15625 25.0469 8.15625ZM17.5 10.3125C19.4062 10.3125 21.2344 11.0698 22.5823 12.4177C23.9302 13.7656 24.6875 15.5938 24.6875 17.5C24.6875 19.4062 23.9302 21.2344 22.5823 22.5823C21.2344 23.9302 19.4062 24.6875 17.5 24.6875C15.5938 24.6875 13.7656 23.9302 12.4177 22.5823C11.0698 21.2344 10.3125 19.4062 10.3125 17.5C10.3125 15.5938 11.0698 13.7656 12.4177 12.4177C13.7656 11.0698 15.5938 10.3125 17.5 10.3125ZM17.5 13.1875C16.3563 13.1875 15.2594 13.6419 14.4506 14.4506C13.6419 15.2594 13.1875 16.3563 13.1875 17.5C13.1875 18.6437 13.6419 19.7406 14.4506 20.5494C15.2594 21.3581 16.3563 21.8125 17.5 21.8125C18.6437 21.8125 19.7406 21.3581 20.5494 20.5494C21.3581 19.7406 21.8125 18.6437 21.8125 17.5C21.8125 16.3563 21.3581 15.2594 20.5494 14.4506C19.7406 13.6419 18.6437 13.1875 17.5 13.1875Z" fill="#FEFAE0"/>
</g>
</svg>
